<mxfile host="app.diagrams.net" modified="2023-03-21T03:48:42.169Z" agent="5.0 (Windows NT 10.0; Win64; x64) AppleWebKit/537.36 (KHTML, like Gecko) Chrome/111.0.0.0 Safari/537.36" etag="uwEyLWuDF9QoSDRW4_SI" version="20.8.21" type="github">
  <diagram name="Page-1" id="929967ad-93f9-6ef4-fab6-5d389245f69c">
    <mxGraphModel dx="2518" dy="1416" grid="1" gridSize="10" guides="1" tooltips="1" connect="1" arrows="1" fold="1" page="1" pageScale="1.5" pageWidth="1169" pageHeight="826" background="none" math="0" shadow="0">
      <root>
        <mxCell id="0" style=";html=1;" />
        <mxCell id="1" style=";html=1;" parent="0" />
        <mxCell id="zlyBfy8H01efTNsYLWTc-6" style="edgeStyle=orthogonalEdgeStyle;rounded=0;orthogonalLoop=1;jettySize=auto;html=1;entryX=0.5;entryY=1;entryDx=0;entryDy=0;endArrow=block;endFill=0;" edge="1" parent="1" source="YISngo12cGfvKzasnoVp-1" target="zlyBfy8H01efTNsYLWTc-4">
          <mxGeometry relative="1" as="geometry" />
        </mxCell>
        <mxCell id="YISngo12cGfvKzasnoVp-1" value="PrimaryWindow" style="swimlane;fontStyle=1;align=center;verticalAlign=top;childLayout=stackLayout;horizontal=1;startSize=26;horizontalStack=0;resizeParent=1;resizeParentMax=0;resizeLast=0;collapsible=1;marginBottom=0;whiteSpace=wrap;html=1;" parent="1" vertex="1">
          <mxGeometry x="220" y="80" width="240" height="130" as="geometry" />
        </mxCell>
        <mxCell id="YISngo12cGfvKzasnoVp-2" value="-main : JPanel&lt;br&gt;-sidebar : JPanel" style="text;strokeColor=none;fillColor=none;align=left;verticalAlign=top;spacingLeft=4;spacingRight=4;overflow=hidden;rotatable=0;points=[[0,0.5],[1,0.5]];portConstraint=eastwest;whiteSpace=wrap;html=1;" parent="YISngo12cGfvKzasnoVp-1" vertex="1">
          <mxGeometry y="26" width="240" height="44" as="geometry" />
        </mxCell>
        <mxCell id="YISngo12cGfvKzasnoVp-3" value="" style="line;strokeWidth=1;fillColor=none;align=left;verticalAlign=middle;spacingTop=-1;spacingLeft=3;spacingRight=3;rotatable=0;labelPosition=right;points=[];portConstraint=eastwest;strokeColor=inherit;" parent="YISngo12cGfvKzasnoVp-1" vertex="1">
          <mxGeometry y="70" width="240" height="8" as="geometry" />
        </mxCell>
        <mxCell id="YISngo12cGfvKzasnoVp-4" value="+ PrimaryWindow()&lt;br&gt;+ loadMenuPanel() : void&lt;br&gt;+ loadPanel(panel: JPanel) : void" style="text;strokeColor=none;fillColor=none;align=left;verticalAlign=top;spacingLeft=4;spacingRight=4;overflow=hidden;rotatable=0;points=[[0,0.5],[1,0.5]];portConstraint=eastwest;whiteSpace=wrap;html=1;" parent="YISngo12cGfvKzasnoVp-1" vertex="1">
          <mxGeometry y="78" width="240" height="52" as="geometry" />
        </mxCell>
        <mxCell id="zlyBfy8H01efTNsYLWTc-29" style="edgeStyle=orthogonalEdgeStyle;rounded=0;orthogonalLoop=1;jettySize=auto;html=1;startArrow=none;startFill=0;endArrow=blockThin;endFill=0;" edge="1" parent="1" source="YISngo12cGfvKzasnoVp-5">
          <mxGeometry relative="1" as="geometry">
            <mxPoint x="1030" y="50" as="targetPoint" />
          </mxGeometry>
        </mxCell>
        <mxCell id="zlyBfy8H01efTNsYLWTc-32" style="edgeStyle=orthogonalEdgeStyle;rounded=0;orthogonalLoop=1;jettySize=auto;html=1;entryX=1;entryY=0.25;entryDx=0;entryDy=0;dashed=1;dashPattern=8 8;startArrow=none;startFill=0;endArrow=blockThin;endFill=0;" edge="1" parent="1" source="YISngo12cGfvKzasnoVp-5" target="zlyBfy8H01efTNsYLWTc-2">
          <mxGeometry relative="1" as="geometry" />
        </mxCell>
        <mxCell id="YISngo12cGfvKzasnoVp-5" value="SidePanel" style="swimlane;fontStyle=1;align=center;verticalAlign=top;childLayout=stackLayout;horizontal=1;startSize=26;horizontalStack=0;resizeParent=1;resizeParentMax=0;resizeLast=0;collapsible=1;marginBottom=0;whiteSpace=wrap;html=1;" parent="1" vertex="1">
          <mxGeometry x="1210" y="40" width="240" height="140" as="geometry" />
        </mxCell>
        <mxCell id="YISngo12cGfvKzasnoVp-6" value="-parent : PrimaryWindow&lt;br&gt;-side : Side&lt;br&gt;-size : JComboBox&amp;lt;Size&amp;gt;" style="text;strokeColor=none;fillColor=none;align=left;verticalAlign=top;spacingLeft=4;spacingRight=4;overflow=hidden;rotatable=0;points=[[0,0.5],[1,0.5]];portConstraint=eastwest;whiteSpace=wrap;html=1;" parent="YISngo12cGfvKzasnoVp-5" vertex="1">
          <mxGeometry y="26" width="240" height="54" as="geometry" />
        </mxCell>
        <mxCell id="YISngo12cGfvKzasnoVp-7" value="" style="line;strokeWidth=1;fillColor=none;align=left;verticalAlign=middle;spacingTop=-1;spacingLeft=3;spacingRight=3;rotatable=0;labelPosition=right;points=[];portConstraint=eastwest;strokeColor=inherit;" parent="YISngo12cGfvKzasnoVp-5" vertex="1">
          <mxGeometry y="80" width="240" height="8" as="geometry" />
        </mxCell>
        <mxCell id="YISngo12cGfvKzasnoVp-8" value="+ SidePanel(parent : PrimaryWindow, aside : Side)&lt;br&gt;+ actionPerformed(e : ActionEvent) : void" style="text;strokeColor=none;fillColor=none;align=left;verticalAlign=top;spacingLeft=4;spacingRight=4;overflow=hidden;rotatable=0;points=[[0,0.5],[1,0.5]];portConstraint=eastwest;whiteSpace=wrap;html=1;" parent="YISngo12cGfvKzasnoVp-5" vertex="1">
          <mxGeometry y="88" width="240" height="52" as="geometry" />
        </mxCell>
        <mxCell id="zlyBfy8H01efTNsYLWTc-25" style="edgeStyle=orthogonalEdgeStyle;rounded=0;orthogonalLoop=1;jettySize=auto;html=1;entryX=1;entryY=0.5;entryDx=0;entryDy=0;dashed=1;dashPattern=8 8;startArrow=none;startFill=0;endArrow=block;endFill=0;" edge="1" parent="1" source="YISngo12cGfvKzasnoVp-9" target="zlyBfy8H01efTNsYLWTc-2">
          <mxGeometry relative="1" as="geometry" />
        </mxCell>
        <mxCell id="YISngo12cGfvKzasnoVp-9" value="EntreePanel" style="swimlane;fontStyle=1;align=center;verticalAlign=top;childLayout=stackLayout;horizontal=1;startSize=26;horizontalStack=0;resizeParent=1;resizeParentMax=0;resizeLast=0;collapsible=1;marginBottom=0;whiteSpace=wrap;html=1;" parent="1" vertex="1">
          <mxGeometry x="1130" y="252" width="260" height="250" as="geometry" />
        </mxCell>
        <mxCell id="YISngo12cGfvKzasnoVp-10" value="-parent : PrimaryWindow&lt;br&gt;-entree: Entree&lt;br&gt;-base: JComboBox&amp;lt;Base&amp;gt;&lt;br&gt;#gridynum : int&lt;br&gt;toppingBox : HashMap&amp;lt;Toppings, JCheckBox)" style="text;strokeColor=none;fillColor=none;align=left;verticalAlign=top;spacingLeft=4;spacingRight=4;overflow=hidden;rotatable=0;points=[[0,0.5],[1,0.5]];portConstraint=eastwest;whiteSpace=wrap;html=1;" parent="YISngo12cGfvKzasnoVp-9" vertex="1">
          <mxGeometry y="26" width="260" height="104" as="geometry" />
        </mxCell>
        <mxCell id="YISngo12cGfvKzasnoVp-11" value="" style="line;strokeWidth=1;fillColor=none;align=left;verticalAlign=middle;spacingTop=-1;spacingLeft=3;spacingRight=3;rotatable=0;labelPosition=right;points=[];portConstraint=eastwest;strokeColor=inherit;" parent="YISngo12cGfvKzasnoVp-9" vertex="1">
          <mxGeometry y="130" width="260" height="8" as="geometry" />
        </mxCell>
        <mxCell id="YISngo12cGfvKzasnoVp-12" value="+ EntreePanel(parent : PrimaryWindow, anEntree : Entree)&lt;br&gt;&lt;br&gt;#makeGbc(y : int , start : boolean) : GridBagContraints&lt;br&gt;&lt;br&gt;+ actionPerformed(e : ActionEvent) : void" style="text;strokeColor=none;fillColor=none;align=left;verticalAlign=top;spacingLeft=4;spacingRight=4;overflow=hidden;rotatable=0;points=[[0,0.5],[1,0.5]];portConstraint=eastwest;whiteSpace=wrap;html=1;" parent="YISngo12cGfvKzasnoVp-9" vertex="1">
          <mxGeometry y="138" width="260" height="112" as="geometry" />
        </mxCell>
        <mxCell id="zlyBfy8H01efTNsYLWTc-30" style="edgeStyle=orthogonalEdgeStyle;rounded=0;orthogonalLoop=1;jettySize=auto;html=1;entryX=0.5;entryY=1;entryDx=0;entryDy=0;startArrow=none;startFill=0;endArrow=blockThin;endFill=0;" edge="1" parent="1" source="YISngo12cGfvKzasnoVp-13" target="zlyBfy8H01efTNsYLWTc-3">
          <mxGeometry relative="1" as="geometry" />
        </mxCell>
        <mxCell id="zlyBfy8H01efTNsYLWTc-31" style="edgeStyle=orthogonalEdgeStyle;rounded=0;orthogonalLoop=1;jettySize=auto;html=1;exitX=0.75;exitY=0;exitDx=0;exitDy=0;entryX=0.5;entryY=1;entryDx=0;entryDy=0;startArrow=none;startFill=0;endArrow=blockThin;endFill=0;dashed=1;dashPattern=8 8;" edge="1" parent="1" source="YISngo12cGfvKzasnoVp-13" target="zlyBfy8H01efTNsYLWTc-2">
          <mxGeometry relative="1" as="geometry">
            <Array as="points">
              <mxPoint x="495" y="440" />
              <mxPoint x="765" y="440" />
            </Array>
          </mxGeometry>
        </mxCell>
        <mxCell id="YISngo12cGfvKzasnoVp-13" value="DrinksPanel" style="swimlane;fontStyle=1;align=center;verticalAlign=top;childLayout=stackLayout;horizontal=1;startSize=26;horizontalStack=0;resizeParent=1;resizeParentMax=0;resizeLast=0;collapsible=1;marginBottom=0;whiteSpace=wrap;html=1;" parent="1" vertex="1">
          <mxGeometry x="300" y="580" width="260" height="250" as="geometry" />
        </mxCell>
        <mxCell id="zlyBfy8H01efTNsYLWTc-40" style="edgeStyle=orthogonalEdgeStyle;rounded=0;orthogonalLoop=1;jettySize=auto;html=1;startArrow=none;startFill=0;endArrow=diamondThin;endFill=1;" edge="1" parent="YISngo12cGfvKzasnoVp-13" source="YISngo12cGfvKzasnoVp-14">
          <mxGeometry relative="1" as="geometry">
            <mxPoint x="400" y="20" as="targetPoint" />
          </mxGeometry>
        </mxCell>
        <mxCell id="YISngo12cGfvKzasnoVp-14" value="-parent : PrimaryWindow&lt;br&gt;-drink: Drink&lt;br&gt;-base: JComboBox&amp;lt;Base&amp;gt;&lt;br&gt;#gridynum : int&lt;br&gt;toppingBox : HashMap&amp;lt;Toppings, JCheckBox)" style="text;strokeColor=none;fillColor=none;align=left;verticalAlign=top;spacingLeft=4;spacingRight=4;overflow=hidden;rotatable=0;points=[[0,0.5],[1,0.5]];portConstraint=eastwest;whiteSpace=wrap;html=1;" parent="YISngo12cGfvKzasnoVp-13" vertex="1">
          <mxGeometry y="26" width="260" height="104" as="geometry" />
        </mxCell>
        <mxCell id="YISngo12cGfvKzasnoVp-15" value="" style="line;strokeWidth=1;fillColor=none;align=left;verticalAlign=middle;spacingTop=-1;spacingLeft=3;spacingRight=3;rotatable=0;labelPosition=right;points=[];portConstraint=eastwest;strokeColor=inherit;" parent="YISngo12cGfvKzasnoVp-13" vertex="1">
          <mxGeometry y="130" width="260" height="8" as="geometry" />
        </mxCell>
        <mxCell id="YISngo12cGfvKzasnoVp-16" value="+ EntreePanel(parent : PrimaryWindow, anEntree : Entree)&lt;br&gt;&lt;br&gt;#makeGbc(y : int , start : boolean) : GridBagContraints&lt;br&gt;&lt;br&gt;+ actionPerformed(e : ActionEvent) : void" style="text;strokeColor=none;fillColor=none;align=left;verticalAlign=top;spacingLeft=4;spacingRight=4;overflow=hidden;rotatable=0;points=[[0,0.5],[1,0.5]];portConstraint=eastwest;whiteSpace=wrap;html=1;" parent="YISngo12cGfvKzasnoVp-13" vertex="1">
          <mxGeometry y="138" width="260" height="112" as="geometry" />
        </mxCell>
        <mxCell id="zlyBfy8H01efTNsYLWTc-1" style="edgeStyle=orthogonalEdgeStyle;rounded=0;orthogonalLoop=1;jettySize=auto;html=1;entryX=0.458;entryY=1;entryDx=0;entryDy=0;entryPerimeter=0;endArrow=diamondThin;endFill=1;" edge="1" parent="1" source="YISngo12cGfvKzasnoVp-17" target="YISngo12cGfvKzasnoVp-4">
          <mxGeometry relative="1" as="geometry" />
        </mxCell>
        <mxCell id="zlyBfy8H01efTNsYLWTc-21" style="edgeStyle=orthogonalEdgeStyle;rounded=0;orthogonalLoop=1;jettySize=auto;html=1;entryX=1;entryY=0.5;entryDx=0;entryDy=0;startArrow=none;startFill=0;endArrow=block;endFill=0;" edge="1" parent="1" source="YISngo12cGfvKzasnoVp-17" target="zlyBfy8H01efTNsYLWTc-3">
          <mxGeometry relative="1" as="geometry" />
        </mxCell>
        <mxCell id="YISngo12cGfvKzasnoVp-17" value="MenuPanel" style="swimlane;fontStyle=1;align=center;verticalAlign=top;childLayout=stackLayout;horizontal=1;startSize=26;horizontalStack=0;resizeParent=1;resizeParentMax=0;resizeLast=0;collapsible=1;marginBottom=0;whiteSpace=wrap;html=1;" parent="1" vertex="1">
          <mxGeometry x="350" y="250" width="240" height="130" as="geometry" />
        </mxCell>
        <mxCell id="YISngo12cGfvKzasnoVp-18" value="-main : JPanel&lt;br&gt;-sidebar : JPanel" style="text;strokeColor=none;fillColor=none;align=left;verticalAlign=top;spacingLeft=4;spacingRight=4;overflow=hidden;rotatable=0;points=[[0,0.5],[1,0.5]];portConstraint=eastwest;whiteSpace=wrap;html=1;" parent="YISngo12cGfvKzasnoVp-17" vertex="1">
          <mxGeometry y="26" width="240" height="44" as="geometry" />
        </mxCell>
        <mxCell id="YISngo12cGfvKzasnoVp-19" value="" style="line;strokeWidth=1;fillColor=none;align=left;verticalAlign=middle;spacingTop=-1;spacingLeft=3;spacingRight=3;rotatable=0;labelPosition=right;points=[];portConstraint=eastwest;strokeColor=inherit;" parent="YISngo12cGfvKzasnoVp-17" vertex="1">
          <mxGeometry y="70" width="240" height="8" as="geometry" />
        </mxCell>
        <mxCell id="YISngo12cGfvKzasnoVp-20" value="+ MenuPanel(parent : PrimaryWindow)&lt;br style=&quot;border-color: var(--border-color);&quot;&gt;+ actionPerformed(e : ActionEvent) : void" style="text;strokeColor=none;fillColor=none;align=left;verticalAlign=top;spacingLeft=4;spacingRight=4;overflow=hidden;rotatable=0;points=[[0,0.5],[1,0.5]];portConstraint=eastwest;whiteSpace=wrap;html=1;" parent="YISngo12cGfvKzasnoVp-17" vertex="1">
          <mxGeometry y="78" width="240" height="52" as="geometry" />
        </mxCell>
        <mxCell id="zlyBfy8H01efTNsYLWTc-5" style="edgeStyle=orthogonalEdgeStyle;rounded=0;orthogonalLoop=1;jettySize=auto;html=1;entryX=0.458;entryY=1;entryDx=0;entryDy=0;entryPerimeter=0;endArrow=diamondThin;endFill=1;" edge="1" parent="1" source="YISngo12cGfvKzasnoVp-21" target="YISngo12cGfvKzasnoVp-4">
          <mxGeometry relative="1" as="geometry" />
        </mxCell>
        <mxCell id="zlyBfy8H01efTNsYLWTc-22" style="edgeStyle=orthogonalEdgeStyle;rounded=0;orthogonalLoop=1;jettySize=auto;html=1;entryX=0;entryY=0.5;entryDx=0;entryDy=0;startArrow=none;startFill=0;endArrow=block;endFill=0;" edge="1" parent="1" source="YISngo12cGfvKzasnoVp-21" target="zlyBfy8H01efTNsYLWTc-3">
          <mxGeometry relative="1" as="geometry" />
        </mxCell>
        <mxCell id="YISngo12cGfvKzasnoVp-21" value="OrderPanel" style="swimlane;fontStyle=1;align=center;verticalAlign=top;childLayout=stackLayout;horizontal=1;startSize=26;horizontalStack=0;resizeParent=1;resizeParentMax=0;resizeLast=0;collapsible=1;marginBottom=0;whiteSpace=wrap;html=1;" parent="1" vertex="1">
          <mxGeometry x="80" y="250" width="240" height="130" as="geometry" />
        </mxCell>
        <mxCell id="YISngo12cGfvKzasnoVp-22" value="-parent : PrimaryWindow&lt;br&gt;-orderNumber : JLabel&lt;br&gt;-orderList : JList&amp;lt;Item&amp;gt;" style="text;strokeColor=none;fillColor=none;align=left;verticalAlign=top;spacingLeft=4;spacingRight=4;overflow=hidden;rotatable=0;points=[[0,0.5],[1,0.5]];portConstraint=eastwest;whiteSpace=wrap;html=1;" parent="YISngo12cGfvKzasnoVp-21" vertex="1">
          <mxGeometry y="26" width="240" height="44" as="geometry" />
        </mxCell>
        <mxCell id="YISngo12cGfvKzasnoVp-23" value="" style="line;strokeWidth=1;fillColor=none;align=left;verticalAlign=middle;spacingTop=-1;spacingLeft=3;spacingRight=3;rotatable=0;labelPosition=right;points=[];portConstraint=eastwest;strokeColor=inherit;" parent="YISngo12cGfvKzasnoVp-21" vertex="1">
          <mxGeometry y="70" width="240" height="8" as="geometry" />
        </mxCell>
        <mxCell id="YISngo12cGfvKzasnoVp-24" value="+OrderPanel(parent : PrimaryWindow)" style="text;strokeColor=none;fillColor=none;align=left;verticalAlign=top;spacingLeft=4;spacingRight=4;overflow=hidden;rotatable=0;points=[[0,0.5],[1,0.5]];portConstraint=eastwest;whiteSpace=wrap;html=1;" parent="YISngo12cGfvKzasnoVp-21" vertex="1">
          <mxGeometry y="78" width="240" height="52" as="geometry" />
        </mxCell>
        <mxCell id="zlyBfy8H01efTNsYLWTc-13" style="edgeStyle=orthogonalEdgeStyle;rounded=0;orthogonalLoop=1;jettySize=auto;html=1;startArrow=none;startFill=0;endArrow=block;endFill=0;" edge="1" parent="1" source="YISngo12cGfvKzasnoVp-25">
          <mxGeometry relative="1" as="geometry">
            <mxPoint x="420" y="840" as="targetPoint" />
          </mxGeometry>
        </mxCell>
        <mxCell id="YISngo12cGfvKzasnoVp-25" value="CandyPanel" style="swimlane;fontStyle=1;align=center;verticalAlign=top;childLayout=stackLayout;horizontal=1;startSize=26;horizontalStack=0;resizeParent=1;resizeParentMax=0;resizeLast=0;collapsible=1;marginBottom=0;whiteSpace=wrap;html=1;" parent="1" vertex="1">
          <mxGeometry x="300" y="910" width="240" height="140" as="geometry" />
        </mxCell>
        <mxCell id="YISngo12cGfvKzasnoVp-26" value="-chocolate : JCheckBox&lt;br&gt;-vanilla: JCheckBox&lt;br&gt;-strawberry: JCheckBox" style="text;strokeColor=none;fillColor=none;align=left;verticalAlign=top;spacingLeft=4;spacingRight=4;overflow=hidden;rotatable=0;points=[[0,0.5],[1,0.5]];portConstraint=eastwest;whiteSpace=wrap;html=1;" parent="YISngo12cGfvKzasnoVp-25" vertex="1">
          <mxGeometry y="26" width="240" height="54" as="geometry" />
        </mxCell>
        <mxCell id="YISngo12cGfvKzasnoVp-27" value="" style="line;strokeWidth=1;fillColor=none;align=left;verticalAlign=middle;spacingTop=-1;spacingLeft=3;spacingRight=3;rotatable=0;labelPosition=right;points=[];portConstraint=eastwest;strokeColor=inherit;" parent="YISngo12cGfvKzasnoVp-25" vertex="1">
          <mxGeometry y="80" width="240" height="8" as="geometry" />
        </mxCell>
        <mxCell id="YISngo12cGfvKzasnoVp-28" value="+CandyPanel(parent : PrimaryWindow)" style="text;strokeColor=none;fillColor=none;align=left;verticalAlign=top;spacingLeft=4;spacingRight=4;overflow=hidden;rotatable=0;points=[[0,0.5],[1,0.5]];portConstraint=eastwest;whiteSpace=wrap;html=1;" parent="YISngo12cGfvKzasnoVp-25" vertex="1">
          <mxGeometry y="88" width="240" height="52" as="geometry" />
        </mxCell>
        <mxCell id="zlyBfy8H01efTNsYLWTc-12" style="edgeStyle=orthogonalEdgeStyle;rounded=0;orthogonalLoop=1;jettySize=auto;html=1;entryX=1.009;entryY=0.062;entryDx=0;entryDy=0;entryPerimeter=0;startArrow=none;startFill=0;endArrow=block;endFill=0;" edge="1" parent="1" source="YISngo12cGfvKzasnoVp-29" target="YISngo12cGfvKzasnoVp-16">
          <mxGeometry relative="1" as="geometry" />
        </mxCell>
        <mxCell id="YISngo12cGfvKzasnoVp-29" value="CraniumPanel" style="swimlane;fontStyle=1;align=center;verticalAlign=top;childLayout=stackLayout;horizontal=1;startSize=26;horizontalStack=0;resizeParent=1;resizeParentMax=0;resizeLast=0;collapsible=1;marginBottom=0;whiteSpace=wrap;html=1;" parent="1" vertex="1">
          <mxGeometry x="560" y="910" width="240" height="138" as="geometry" />
        </mxCell>
        <mxCell id="YISngo12cGfvKzasnoVp-30" value="-milk: JCheckBox&lt;br&gt;-caramel: JCheckBox&lt;br&gt;-chocolate: JCheckBox&lt;br&gt;-mint : JCheckBox" style="text;strokeColor=none;fillColor=none;align=left;verticalAlign=top;spacingLeft=4;spacingRight=4;overflow=hidden;rotatable=0;points=[[0,0.5],[1,0.5]];portConstraint=eastwest;whiteSpace=wrap;html=1;" parent="YISngo12cGfvKzasnoVp-29" vertex="1">
          <mxGeometry y="26" width="240" height="74" as="geometry" />
        </mxCell>
        <mxCell id="YISngo12cGfvKzasnoVp-31" value="" style="line;strokeWidth=1;fillColor=none;align=left;verticalAlign=middle;spacingTop=-1;spacingLeft=3;spacingRight=3;rotatable=0;labelPosition=right;points=[];portConstraint=eastwest;strokeColor=inherit;" parent="YISngo12cGfvKzasnoVp-29" vertex="1">
          <mxGeometry y="100" width="240" height="8" as="geometry" />
        </mxCell>
        <mxCell id="YISngo12cGfvKzasnoVp-32" value="+CraniumPanel(parent : PrimaryWindow)" style="text;strokeColor=none;fillColor=none;align=left;verticalAlign=top;spacingLeft=4;spacingRight=4;overflow=hidden;rotatable=0;points=[[0,0.5],[1,0.5]];portConstraint=eastwest;whiteSpace=wrap;html=1;" parent="YISngo12cGfvKzasnoVp-29" vertex="1">
          <mxGeometry y="108" width="240" height="30" as="geometry" />
        </mxCell>
        <mxCell id="zlyBfy8H01efTNsYLWTc-14" style="edgeStyle=orthogonalEdgeStyle;rounded=0;orthogonalLoop=1;jettySize=auto;html=1;entryX=-0.014;entryY=0.048;entryDx=0;entryDy=0;entryPerimeter=0;startArrow=none;startFill=0;endArrow=block;endFill=0;" edge="1" parent="1" source="YISngo12cGfvKzasnoVp-33" target="YISngo12cGfvKzasnoVp-16">
          <mxGeometry relative="1" as="geometry" />
        </mxCell>
        <mxCell id="YISngo12cGfvKzasnoVp-33" value="SorryPanel" style="swimlane;fontStyle=1;align=center;verticalAlign=top;childLayout=stackLayout;horizontal=1;startSize=26;horizontalStack=0;resizeParent=1;resizeParentMax=0;resizeLast=0;collapsible=1;marginBottom=0;whiteSpace=wrap;html=1;" parent="1" vertex="1">
          <mxGeometry x="30" y="900" width="240" height="150" as="geometry" />
        </mxCell>
        <mxCell id="YISngo12cGfvKzasnoVp-34" value="-cola: JCheckBox&lt;br&gt;-cherry: JCheckBox&lt;br&gt;-grape: JCheckBox&lt;br&gt;-orange : JCheckBox" style="text;strokeColor=none;fillColor=none;align=left;verticalAlign=top;spacingLeft=4;spacingRight=4;overflow=hidden;rotatable=0;points=[[0,0.5],[1,0.5]];portConstraint=eastwest;whiteSpace=wrap;html=1;" parent="YISngo12cGfvKzasnoVp-33" vertex="1">
          <mxGeometry y="26" width="240" height="64" as="geometry" />
        </mxCell>
        <mxCell id="YISngo12cGfvKzasnoVp-35" value="" style="line;strokeWidth=1;fillColor=none;align=left;verticalAlign=middle;spacingTop=-1;spacingLeft=3;spacingRight=3;rotatable=0;labelPosition=right;points=[];portConstraint=eastwest;strokeColor=inherit;" parent="YISngo12cGfvKzasnoVp-33" vertex="1">
          <mxGeometry y="90" width="240" height="8" as="geometry" />
        </mxCell>
        <mxCell id="YISngo12cGfvKzasnoVp-36" value="+SorryPanel(parent : PrimaryWindow)" style="text;strokeColor=none;fillColor=none;align=left;verticalAlign=top;spacingLeft=4;spacingRight=4;overflow=hidden;rotatable=0;points=[[0,0.5],[1,0.5]];portConstraint=eastwest;whiteSpace=wrap;html=1;" parent="YISngo12cGfvKzasnoVp-33" vertex="1">
          <mxGeometry y="98" width="240" height="52" as="geometry" />
        </mxCell>
        <mxCell id="YISngo12cGfvKzasnoVp-37" value="ChessPanel" style="swimlane;fontStyle=1;align=center;verticalAlign=top;childLayout=stackLayout;horizontal=1;startSize=26;horizontalStack=0;resizeParent=1;resizeParentMax=0;resizeLast=0;collapsible=1;marginBottom=0;whiteSpace=wrap;html=1;" parent="1" vertex="1">
          <mxGeometry x="830" y="534" width="260" height="110" as="geometry" />
        </mxCell>
        <mxCell id="zlyBfy8H01efTNsYLWTc-20" style="edgeStyle=orthogonalEdgeStyle;rounded=0;orthogonalLoop=1;jettySize=auto;html=1;startArrow=none;startFill=0;endArrow=block;endFill=0;" edge="1" parent="YISngo12cGfvKzasnoVp-37" source="YISngo12cGfvKzasnoVp-38">
          <mxGeometry relative="1" as="geometry">
            <mxPoint x="350" y="-32" as="targetPoint" />
          </mxGeometry>
        </mxCell>
        <mxCell id="YISngo12cGfvKzasnoVp-38" value="- crispyChicken : JCheckBox&lt;br&gt;- redSauce : JCheckBox" style="text;strokeColor=none;fillColor=none;align=left;verticalAlign=top;spacingLeft=4;spacingRight=4;overflow=hidden;rotatable=0;points=[[0,0.5],[1,0.5]];portConstraint=eastwest;whiteSpace=wrap;html=1;" parent="YISngo12cGfvKzasnoVp-37" vertex="1">
          <mxGeometry y="26" width="260" height="44" as="geometry" />
        </mxCell>
        <mxCell id="YISngo12cGfvKzasnoVp-39" value="" style="line;strokeWidth=1;fillColor=none;align=left;verticalAlign=middle;spacingTop=-1;spacingLeft=3;spacingRight=3;rotatable=0;labelPosition=right;points=[];portConstraint=eastwest;strokeColor=inherit;" parent="YISngo12cGfvKzasnoVp-37" vertex="1">
          <mxGeometry y="70" width="260" height="8" as="geometry" />
        </mxCell>
        <mxCell id="YISngo12cGfvKzasnoVp-40" value="+ ChessPanel(parent : Primary Window)" style="text;strokeColor=none;fillColor=none;align=left;verticalAlign=top;spacingLeft=4;spacingRight=4;overflow=hidden;rotatable=0;points=[[0,0.5],[1,0.5]];portConstraint=eastwest;whiteSpace=wrap;html=1;" parent="YISngo12cGfvKzasnoVp-37" vertex="1">
          <mxGeometry y="78" width="260" height="32" as="geometry" />
        </mxCell>
        <mxCell id="YISngo12cGfvKzasnoVp-41" value="CluePanel" style="swimlane;fontStyle=1;align=center;verticalAlign=top;childLayout=stackLayout;horizontal=1;startSize=26;horizontalStack=0;resizeParent=1;resizeParentMax=0;resizeLast=0;collapsible=1;marginBottom=0;whiteSpace=wrap;html=1;" parent="1" vertex="1">
          <mxGeometry x="830" y="672" width="260" height="158" as="geometry" />
        </mxCell>
        <mxCell id="zlyBfy8H01efTNsYLWTc-15" style="edgeStyle=orthogonalEdgeStyle;rounded=0;orthogonalLoop=1;jettySize=auto;html=1;startArrow=none;startFill=0;endArrow=block;endFill=0;" edge="1" parent="YISngo12cGfvKzasnoVp-41">
          <mxGeometry relative="1" as="geometry">
            <mxPoint x="430" y="-170" as="targetPoint" />
            <mxPoint x="130" as="sourcePoint" />
            <Array as="points">
              <mxPoint x="130" y="-10" />
              <mxPoint x="430" y="-10" />
            </Array>
          </mxGeometry>
        </mxCell>
        <mxCell id="YISngo12cGfvKzasnoVp-42" value="- spicyBeef: JCheckBox&lt;br&gt;- chili: JCheckBox&lt;br&gt;-redSauce : JCheckBox&lt;br&gt;- beans : JCheckBox" style="text;strokeColor=none;fillColor=none;align=left;verticalAlign=top;spacingLeft=4;spacingRight=4;overflow=hidden;rotatable=0;points=[[0,0.5],[1,0.5]];portConstraint=eastwest;whiteSpace=wrap;html=1;" parent="YISngo12cGfvKzasnoVp-41" vertex="1">
          <mxGeometry y="26" width="260" height="84" as="geometry" />
        </mxCell>
        <mxCell id="YISngo12cGfvKzasnoVp-43" value="" style="line;strokeWidth=1;fillColor=none;align=left;verticalAlign=middle;spacingTop=-1;spacingLeft=3;spacingRight=3;rotatable=0;labelPosition=right;points=[];portConstraint=eastwest;strokeColor=inherit;" parent="YISngo12cGfvKzasnoVp-41" vertex="1">
          <mxGeometry y="110" width="260" height="8" as="geometry" />
        </mxCell>
        <mxCell id="YISngo12cGfvKzasnoVp-44" value="+ CluePanel(parent : Primary Window)" style="text;strokeColor=none;fillColor=none;align=left;verticalAlign=top;spacingLeft=4;spacingRight=4;overflow=hidden;rotatable=0;points=[[0,0.5],[1,0.5]];portConstraint=eastwest;whiteSpace=wrap;html=1;" parent="YISngo12cGfvKzasnoVp-41" vertex="1">
          <mxGeometry y="118" width="260" height="40" as="geometry" />
        </mxCell>
        <mxCell id="zlyBfy8H01efTNsYLWTc-17" style="edgeStyle=orthogonalEdgeStyle;rounded=0;orthogonalLoop=1;jettySize=auto;html=1;startArrow=none;startFill=0;endArrow=none;endFill=0;" edge="1" parent="1" source="YISngo12cGfvKzasnoVp-45">
          <mxGeometry relative="1" as="geometry">
            <mxPoint x="1260" y="662" as="targetPoint" />
          </mxGeometry>
        </mxCell>
        <mxCell id="YISngo12cGfvKzasnoVp-45" value="JengaPanel" style="swimlane;fontStyle=1;align=center;verticalAlign=top;childLayout=stackLayout;horizontal=1;startSize=26;horizontalStack=0;resizeParent=1;resizeParentMax=0;resizeLast=0;collapsible=1;marginBottom=0;whiteSpace=wrap;html=1;" parent="1" vertex="1">
          <mxGeometry x="1130" y="712" width="260" height="118" as="geometry" />
        </mxCell>
        <mxCell id="YISngo12cGfvKzasnoVp-46" value="- spicyBeef: JCheckBox&lt;br&gt;- beans : JCheckBox" style="text;strokeColor=none;fillColor=none;align=left;verticalAlign=top;spacingLeft=4;spacingRight=4;overflow=hidden;rotatable=0;points=[[0,0.5],[1,0.5]];portConstraint=eastwest;whiteSpace=wrap;html=1;" parent="YISngo12cGfvKzasnoVp-45" vertex="1">
          <mxGeometry y="26" width="260" height="44" as="geometry" />
        </mxCell>
        <mxCell id="YISngo12cGfvKzasnoVp-47" value="" style="line;strokeWidth=1;fillColor=none;align=left;verticalAlign=middle;spacingTop=-1;spacingLeft=3;spacingRight=3;rotatable=0;labelPosition=right;points=[];portConstraint=eastwest;strokeColor=inherit;" parent="YISngo12cGfvKzasnoVp-45" vertex="1">
          <mxGeometry y="70" width="260" height="8" as="geometry" />
        </mxCell>
        <mxCell id="YISngo12cGfvKzasnoVp-48" value="+ JengaPanel(parent : Primary Window)" style="text;strokeColor=none;fillColor=none;align=left;verticalAlign=top;spacingLeft=4;spacingRight=4;overflow=hidden;rotatable=0;points=[[0,0.5],[1,0.5]];portConstraint=eastwest;whiteSpace=wrap;html=1;" parent="YISngo12cGfvKzasnoVp-45" vertex="1">
          <mxGeometry y="78" width="260" height="40" as="geometry" />
        </mxCell>
        <mxCell id="zlyBfy8H01efTNsYLWTc-18" style="edgeStyle=orthogonalEdgeStyle;rounded=0;orthogonalLoop=1;jettySize=auto;html=1;startArrow=none;startFill=0;endArrow=none;endFill=0;exitX=0.5;exitY=0;exitDx=0;exitDy=0;" edge="1" parent="1" source="YISngo12cGfvKzasnoVp-53">
          <mxGeometry relative="1" as="geometry">
            <mxPoint x="1260" y="652" as="targetPoint" />
            <Array as="points">
              <mxPoint x="1560" y="662" />
              <mxPoint x="1260" y="662" />
            </Array>
          </mxGeometry>
        </mxCell>
        <mxCell id="YISngo12cGfvKzasnoVp-53" value="MonopolyPanel" style="swimlane;fontStyle=1;align=center;verticalAlign=top;childLayout=stackLayout;horizontal=1;startSize=26;horizontalStack=0;resizeParent=1;resizeParentMax=0;resizeLast=0;collapsible=1;marginBottom=0;whiteSpace=wrap;html=1;" parent="1" vertex="1">
          <mxGeometry x="1430" y="672" width="260" height="158" as="geometry" />
        </mxCell>
        <mxCell id="YISngo12cGfvKzasnoVp-54" value="- spicyBeef: JCheckBox&lt;br&gt;- crispyChicken: JCheckBox&lt;br&gt;-veggies: JCheckBox&lt;br&gt;- beans : JCheckBox" style="text;strokeColor=none;fillColor=none;align=left;verticalAlign=top;spacingLeft=4;spacingRight=4;overflow=hidden;rotatable=0;points=[[0,0.5],[1,0.5]];portConstraint=eastwest;whiteSpace=wrap;html=1;" parent="YISngo12cGfvKzasnoVp-53" vertex="1">
          <mxGeometry y="26" width="260" height="84" as="geometry" />
        </mxCell>
        <mxCell id="YISngo12cGfvKzasnoVp-55" value="" style="line;strokeWidth=1;fillColor=none;align=left;verticalAlign=middle;spacingTop=-1;spacingLeft=3;spacingRight=3;rotatable=0;labelPosition=right;points=[];portConstraint=eastwest;strokeColor=inherit;" parent="YISngo12cGfvKzasnoVp-53" vertex="1">
          <mxGeometry y="110" width="260" height="8" as="geometry" />
        </mxCell>
        <mxCell id="YISngo12cGfvKzasnoVp-56" value="+ MonopolyPanel(parent : Primary Window)" style="text;strokeColor=none;fillColor=none;align=left;verticalAlign=top;spacingLeft=4;spacingRight=4;overflow=hidden;rotatable=0;points=[[0,0.5],[1,0.5]];portConstraint=eastwest;whiteSpace=wrap;html=1;" parent="YISngo12cGfvKzasnoVp-53" vertex="1">
          <mxGeometry y="118" width="260" height="40" as="geometry" />
        </mxCell>
        <mxCell id="YISngo12cGfvKzasnoVp-57" value="YahtzeePanel" style="swimlane;fontStyle=1;align=center;verticalAlign=top;childLayout=stackLayout;horizontal=1;startSize=26;horizontalStack=0;resizeParent=1;resizeParentMax=0;resizeLast=0;collapsible=1;marginBottom=0;whiteSpace=wrap;html=1;" parent="1" vertex="1">
          <mxGeometry x="1430" y="494" width="260" height="158" as="geometry" />
        </mxCell>
        <mxCell id="zlyBfy8H01efTNsYLWTc-19" style="edgeStyle=orthogonalEdgeStyle;rounded=0;orthogonalLoop=1;jettySize=auto;html=1;startArrow=none;startFill=0;endArrow=block;endFill=0;" edge="1" parent="YISngo12cGfvKzasnoVp-57" source="YISngo12cGfvKzasnoVp-58">
          <mxGeometry relative="1" as="geometry">
            <mxPoint x="-100" y="8" as="targetPoint" />
          </mxGeometry>
        </mxCell>
        <mxCell id="YISngo12cGfvKzasnoVp-58" value="- tuna: JCheckBox&lt;br&gt;- seaweed: JCheckBox&lt;br&gt;-veggies: JCheckBox" style="text;strokeColor=none;fillColor=none;align=left;verticalAlign=top;spacingLeft=4;spacingRight=4;overflow=hidden;rotatable=0;points=[[0,0.5],[1,0.5]];portConstraint=eastwest;whiteSpace=wrap;html=1;" parent="YISngo12cGfvKzasnoVp-57" vertex="1">
          <mxGeometry y="26" width="260" height="84" as="geometry" />
        </mxCell>
        <mxCell id="YISngo12cGfvKzasnoVp-59" value="" style="line;strokeWidth=1;fillColor=none;align=left;verticalAlign=middle;spacingTop=-1;spacingLeft=3;spacingRight=3;rotatable=0;labelPosition=right;points=[];portConstraint=eastwest;strokeColor=inherit;" parent="YISngo12cGfvKzasnoVp-57" vertex="1">
          <mxGeometry y="110" width="260" height="8" as="geometry" />
        </mxCell>
        <mxCell id="YISngo12cGfvKzasnoVp-60" value="+ YahtzeePanel(parent : Primary Window)" style="text;strokeColor=none;fillColor=none;align=left;verticalAlign=top;spacingLeft=4;spacingRight=4;overflow=hidden;rotatable=0;points=[[0,0.5],[1,0.5]];portConstraint=eastwest;whiteSpace=wrap;html=1;" parent="YISngo12cGfvKzasnoVp-57" vertex="1">
          <mxGeometry y="118" width="260" height="40" as="geometry" />
        </mxCell>
        <mxCell id="zlyBfy8H01efTNsYLWTc-2" value="«interface»&lt;br&gt;&lt;b&gt;ActionListener&lt;/b&gt;" style="html=1;" vertex="1" parent="1">
          <mxGeometry x="710" y="120" width="110" height="50" as="geometry" />
        </mxCell>
        <mxCell id="zlyBfy8H01efTNsYLWTc-3" value="&lt;b&gt;JPanel&lt;/b&gt;" style="html=1;" vertex="1" parent="1">
          <mxGeometry x="270" y="400" width="110" height="50" as="geometry" />
        </mxCell>
        <mxCell id="zlyBfy8H01efTNsYLWTc-4" value="&lt;b&gt;JFrame&lt;/b&gt;" style="html=1;" vertex="1" parent="1">
          <mxGeometry x="550" y="10" width="110" height="50" as="geometry" />
        </mxCell>
        <mxCell id="zlyBfy8H01efTNsYLWTc-9" style="edgeStyle=orthogonalEdgeStyle;rounded=0;orthogonalLoop=1;jettySize=auto;html=1;entryX=0.25;entryY=1;entryDx=0;entryDy=0;startArrow=none;startFill=0;endArrow=block;endFill=0;dashed=1;dashPattern=8 8;" edge="1" parent="1" source="YISngo12cGfvKzasnoVp-18" target="zlyBfy8H01efTNsYLWTc-2">
          <mxGeometry relative="1" as="geometry" />
        </mxCell>
        <mxCell id="zlyBfy8H01efTNsYLWTc-24" value="&lt;b&gt;JPanel&lt;/b&gt;" style="html=1;" vertex="1" parent="1">
          <mxGeometry x="910" y="30" width="110" height="50" as="geometry" />
        </mxCell>
        <mxCell id="zlyBfy8H01efTNsYLWTc-33" value="package gamegrub.data.sides;" style="html=1;" vertex="1" parent="1">
          <mxGeometry x="1500" y="68" width="190" height="50" as="geometry" />
        </mxCell>
        <mxCell id="zlyBfy8H01efTNsYLWTc-36" value="package gamegrub.data.entrees;" style="html=1;" vertex="1" parent="1">
          <mxGeometry x="1500" y="305" width="190" height="50" as="geometry" />
        </mxCell>
        <mxCell id="zlyBfy8H01efTNsYLWTc-37" value="package gamegrub.data.drinks;" style="html=1;" vertex="1" parent="1">
          <mxGeometry x="600" y="548" width="190" height="50" as="geometry" />
        </mxCell>
        <mxCell id="zlyBfy8H01efTNsYLWTc-38" style="edgeStyle=orthogonalEdgeStyle;rounded=0;orthogonalLoop=1;jettySize=auto;html=1;entryX=0;entryY=0.5;entryDx=0;entryDy=0;startArrow=none;startFill=0;endArrow=diamondThin;endFill=1;" edge="1" parent="1" source="YISngo12cGfvKzasnoVp-10" target="zlyBfy8H01efTNsYLWTc-36">
          <mxGeometry relative="1" as="geometry" />
        </mxCell>
        <mxCell id="zlyBfy8H01efTNsYLWTc-39" style="edgeStyle=orthogonalEdgeStyle;rounded=0;orthogonalLoop=1;jettySize=auto;html=1;entryX=0;entryY=0.5;entryDx=0;entryDy=0;startArrow=none;startFill=0;endArrow=diamondThin;endFill=1;" edge="1" parent="1" source="YISngo12cGfvKzasnoVp-6" target="zlyBfy8H01efTNsYLWTc-33">
          <mxGeometry relative="1" as="geometry" />
        </mxCell>
      </root>
    </mxGraphModel>
  </diagram>
</mxfile>
